<svg width="600" height="200" xmlns="http://www.w3.org/2000/svg" version="1.1"  >
<text x="0.000000" y="75.000000" font-size="100" font-family="monospace" fill="red" transform="scale(0.238095,0.602899)">6D-6*01</text>

<text x="0.000000" y="237.500000" font-size="100" font-family="monospace" fill="green" transform="scale(0.166667,0.278261)">21/DV12*01</text>

<text x="0.000000" y="787.500000" font-size="100" font-family="monospace" fill="magenta" transform="scale(0.166667,0.092754)">6-7/DV9*02</text>

<text x="0.000000" y="1650.000000" font-size="100" font-family="monospace" fill="lime" transform="scale(0.277778,0.046377)">7-2*01</text>

<text x="0.000000" y="1725.000000" font-size="100" font-family="monospace" fill="blue" transform="scale(0.208333,0.046377)">12N-3*01</text>


<rect x="0" y="0" height="80" width="100" style="fill:none;stroke:black;stroke-width:1" />

<text x="273.000000" y="75.000000" font-size="100" font-family="monospace" fill="green" transform="scale(0.384615,1.066667)">C</text>

<text x="333.000000" y="75.000000" font-size="100" font-family="monospace" fill="black" transform="scale(0.384615,0.788406)">A</text>

<text x="333.000000" y="287.500000" font-size="100" font-family="monospace" fill="black" transform="scale(0.384615,0.278261)">I</text>

<text x="393.000000" y="75.000000" font-size="100" font-family="monospace" fill="black" transform="scale(0.384615,0.973913)">L</text>

<text x="393.000000" y="1650.000000" font-size="100" font-family="monospace" fill="blue" transform="scale(0.384615,0.046377)">R</text>

<text x="393.000000" y="1725.000000" font-size="100" font-family="monospace" fill="black" transform="scale(0.384615,0.046377)">A</text>

<text x="453.000000" y="75.000000" font-size="100" font-family="monospace" fill="orange" transform="scale(0.384615,0.602899)">G</text>

<text x="453.000000" y="237.500000" font-size="100" font-family="monospace" fill="green" transform="scale(0.384615,0.278261)">S</text>

<text x="453.000000" y="1500.000000" font-size="100" font-family="monospace" fill="black" transform="scale(0.384615,0.046377)">V</text>

<text x="453.000000" y="1575.000000" font-size="100" font-family="monospace" fill="black" transform="scale(0.384615,0.046377)">N</text>

<text x="453.000000" y="1650.000000" font-size="100" font-family="monospace" fill="red" transform="scale(0.384615,0.046377)">E</text>

<text x="453.000000" y="1725.000000" font-size="100" font-family="monospace" fill="black" transform="scale(0.384615,0.046377)">A</text>

<text x="513.000000" y="75.000000" font-size="100" font-family="monospace" fill="orange" transform="scale(0.384615,0.510145)">G</text>

<text x="513.000000" y="281.250000" font-size="100" font-family="monospace" fill="black" transform="scale(0.384615,0.185507)">A</text>

<text x="513.000000" y="450.000000" font-size="100" font-family="monospace" fill="blue" transform="scale(0.384615,0.139130)">R</text>

<text x="513.000000" y="525.000000" font-size="100" font-family="monospace" fill="red" transform="scale(0.384615,0.139130)">E</text>

<text x="513.000000" y="1650.000000" font-size="100" font-family="monospace" fill="green" transform="scale(0.384615,0.046377)">Y</text>

<text x="513.000000" y="1725.000000" font-size="100" font-family="monospace" fill="green" transform="scale(0.384615,0.046377)">S</text>

<text x="573.000000" y="75.000000" font-size="100" font-family="monospace" fill="orange" transform="scale(0.384615,0.927536)">G</text>

<text x="573.000000" y="825.000000" font-size="100" font-family="monospace" fill="purple" transform="scale(0.384615,0.092754)">Q</text>

<text x="573.000000" y="1725.000000" font-size="100" font-family="monospace" fill="green" transform="scale(0.384615,0.046377)">T</text>

<text x="633.000000" y="75.000000" font-size="100" font-family="monospace" fill="green" transform="scale(0.384615,0.881159)">S</text>

<text x="633.000000" y="431.250000" font-size="100" font-family="monospace" fill="orange" transform="scale(0.384615,0.185507)">G</text>

<text x="693.000000" y="75.000000" font-size="100" font-family="monospace" fill="black" transform="scale(0.384615,0.973913)">N</text>

<text x="693.000000" y="862.500000" font-size="100" font-family="monospace" fill="orange" transform="scale(0.384615,0.092754)">G</text>

<text x="753.000000" y="75.000000" font-size="100" font-family="monospace" fill="green" transform="scale(0.384615,0.881159)">Y</text>

<text x="753.000000" y="787.500000" font-size="100" font-family="monospace" fill="blue" transform="scale(0.384615,0.092754)">R</text>

<text x="753.000000" y="862.500000" font-size="100" font-family="monospace" fill="black" transform="scale(0.384615,0.092754)">N</text>

<text x="813.000000" y="75.000000" font-size="100" font-family="monospace" fill="blue" transform="scale(0.384615,0.742029)">K</text>

<text x="813.000000" y="375.000000" font-size="100" font-family="monospace" fill="purple" transform="scale(0.384615,0.185507)">Q</text>

<text x="813.000000" y="825.000000" font-size="100" font-family="monospace" fill="black" transform="scale(0.384615,0.092754)">A</text>

<text x="813.000000" y="1725.000000" font-size="100" font-family="monospace" fill="blue" transform="scale(0.384615,0.046377)">R</text>

<text x="873.000000" y="75.000000" font-size="100" font-family="monospace" fill="black" transform="scale(0.384615,0.973913)">L</text>

<text x="873.000000" y="1650.000000" font-size="100" font-family="monospace" fill="green" transform="scale(0.384615,0.046377)">Y</text>

<text x="873.000000" y="1725.000000" font-size="100" font-family="monospace" fill="black" transform="scale(0.384615,0.046377)">I</text>

<text x="933.000000" y="75.000000" font-size="100" font-family="monospace" fill="green" transform="scale(0.384615,0.695652)">T</text>

<text x="933.000000" y="262.500000" font-size="100" font-family="monospace" fill="black" transform="scale(0.384615,0.278261)">I</text>

<text x="933.000000" y="1650.000000" font-size="100" font-family="monospace" fill="black" transform="scale(0.384615,0.046377)">V</text>

<text x="933.000000" y="1725.000000" font-size="100" font-family="monospace" fill="black" transform="scale(0.384615,0.046377)">F</text>

<text x="993.000000" y="75.000000" font-size="100" font-family="monospace" fill="black" transform="scale(0.384615,0.881159)">F</text>

<text x="993.000000" y="431.250000" font-size="100" font-family="monospace" fill="black" transform="scale(0.384615,0.185507)">W</text>


<rect x="105" y="0" height="80" width="300" style="fill:none;stroke:black;stroke-width:1" />

<rect x="105.0" y="82" height="36.0" width="7.692307692307693" style="fill:silver;stroke:silver;stroke-width:1" />

<rect x="105.0" y="118.0" height="0.0" width="7.692307692307693" style="fill:red;stroke:red;stroke-width:1" />

<rect x="105.0" y="118.0" height="0.0" width="7.692307692307693" style="fill:dimgray;stroke:dimgray;stroke-width:1" />

<rect x="112.6923076923077" y="82" height="36.0" width="7.692307692307693" style="fill:silver;stroke:silver;stroke-width:1" />

<rect x="112.6923076923077" y="118.0" height="0.0" width="7.692307692307693" style="fill:red;stroke:red;stroke-width:1" />

<rect x="112.6923076923077" y="118.0" height="0.0" width="7.692307692307693" style="fill:dimgray;stroke:dimgray;stroke-width:1" />

<rect x="120.38461538461539" y="82" height="36.0" width="7.692307692307679" style="fill:silver;stroke:silver;stroke-width:1" />

<rect x="120.38461538461539" y="118.0" height="0.0" width="7.692307692307679" style="fill:red;stroke:red;stroke-width:1" />

<rect x="120.38461538461539" y="118.0" height="0.0" width="7.692307692307679" style="fill:dimgray;stroke:dimgray;stroke-width:1" />

<rect x="128.07692307692307" y="82" height="36.0" width="7.692307692307708" style="fill:silver;stroke:silver;stroke-width:1" />

<rect x="128.07692307692307" y="118.0" height="0.0" width="7.692307692307708" style="fill:red;stroke:red;stroke-width:1" />

<rect x="128.07692307692307" y="118.0" height="0.0" width="7.692307692307708" style="fill:dimgray;stroke:dimgray;stroke-width:1" />

<rect x="135.76923076923077" y="82" height="36.0" width="7.692307692307679" style="fill:silver;stroke:silver;stroke-width:1" />

<rect x="135.76923076923077" y="118.0" height="0.0" width="7.692307692307679" style="fill:red;stroke:red;stroke-width:1" />

<rect x="135.76923076923077" y="118.0" height="0.0" width="7.692307692307679" style="fill:dimgray;stroke:dimgray;stroke-width:1" />

<rect x="143.46153846153845" y="82" height="36.0" width="7.692307692307708" style="fill:silver;stroke:silver;stroke-width:1" />

<rect x="143.46153846153845" y="118.0" height="0.0" width="7.692307692307708" style="fill:red;stroke:red;stroke-width:1" />

<rect x="143.46153846153845" y="118.0" height="0.0" width="7.692307692307708" style="fill:dimgray;stroke:dimgray;stroke-width:1" />

<rect x="151.15384615384616" y="82" height="36.0" width="7.692307692307679" style="fill:silver;stroke:silver;stroke-width:1" />

<rect x="151.15384615384616" y="118.0" height="0.0" width="7.692307692307679" style="fill:red;stroke:red;stroke-width:1" />

<rect x="151.15384615384616" y="118.0" height="0.0" width="7.692307692307679" style="fill:dimgray;stroke:dimgray;stroke-width:1" />

<rect x="158.84615384615384" y="82" height="32.86956521739131" width="7.692307692307708" style="fill:silver;stroke:silver;stroke-width:1" />

<rect x="158.84615384615384" y="114.86956521739131" height="3.1304347826086882" width="7.692307692307708" style="fill:red;stroke:red;stroke-width:1" />

<rect x="158.84615384615384" y="118.0" height="0.0" width="7.692307692307708" style="fill:dimgray;stroke:dimgray;stroke-width:1" />

<rect x="166.53846153846155" y="82" height="32.86956521739131" width="7.692307692307679" style="fill:silver;stroke:silver;stroke-width:1" />

<rect x="166.53846153846155" y="114.86956521739131" height="3.1304347826086882" width="7.692307692307679" style="fill:red;stroke:red;stroke-width:1" />

<rect x="166.53846153846155" y="118.0" height="0.0" width="7.692307692307679" style="fill:dimgray;stroke:dimgray;stroke-width:1" />

<rect x="174.23076923076923" y="82" height="15.652173913043484" width="7.692307692307679" style="fill:silver;stroke:silver;stroke-width:1" />

<rect x="174.23076923076923" y="97.65217391304348" height="18.782608695652172" width="7.692307692307679" style="fill:red;stroke:red;stroke-width:1" />

<rect x="174.23076923076923" y="116.43478260869566" height="1.5652173913043441" width="7.692307692307679" style="fill:dimgray;stroke:dimgray;stroke-width:1" />

<rect x="181.9230769230769" y="82" height="9.391304347826093" width="7.692307692307708" style="fill:silver;stroke:silver;stroke-width:1" />

<rect x="181.9230769230769" y="91.3913043478261" height="15.652173913043484" width="7.692307692307708" style="fill:red;stroke:red;stroke-width:1" />

<rect x="181.9230769230769" y="107.04347826086958" height="10.956521739130437" width="7.692307692307708" style="fill:dimgray;stroke:dimgray;stroke-width:1" />

<rect x="189.6153846153846" y="82" height="6.260869565217391" width="7.692307692307708" style="fill:silver;stroke:silver;stroke-width:1" />

<rect x="189.6153846153846" y="88.26086956521739" height="15.652173913043484" width="7.692307692307708" style="fill:red;stroke:red;stroke-width:1" />

<rect x="189.6153846153846" y="103.91304347826087" height="14.086956521739125" width="7.692307692307708" style="fill:dimgray;stroke:dimgray;stroke-width:1" />

<rect x="197.30769230769232" y="82" height="4.695652173913047" width="7.692307692307679" style="fill:silver;stroke:silver;stroke-width:1" />

<rect x="197.30769230769232" y="86.69565217391305" height="14.086956521739125" width="7.692307692307679" style="fill:red;stroke:red;stroke-width:1" />

<rect x="197.30769230769232" y="100.78260869565217" height="17.217391304347828" width="7.692307692307679" style="fill:dimgray;stroke:dimgray;stroke-width:1" />

<rect x="205.0" y="82" height="4.695652173913047" width="7.692307692307679" style="fill:silver;stroke:silver;stroke-width:1" />

<rect x="205.0" y="86.69565217391305" height="7.826086956521735" width="7.692307692307679" style="fill:red;stroke:red;stroke-width:1" />

<rect x="205.0" y="94.52173913043478" height="23.47826086956522" width="7.692307692307679" style="fill:dimgray;stroke:dimgray;stroke-width:1" />

<rect x="212.69230769230768" y="82" height="0.0" width="7.692307692307708" style="fill:silver;stroke:silver;stroke-width:1" />

<rect x="212.69230769230768" y="82.0" height="7.826086956521735" width="7.692307692307708" style="fill:red;stroke:red;stroke-width:1" />

<rect x="212.69230769230768" y="89.82608695652173" height="28.173913043478265" width="7.692307692307708" style="fill:dimgray;stroke:dimgray;stroke-width:1" />

<rect x="220.3846153846154" y="82" height="0.0" width="7.692307692307708" style="fill:silver;stroke:silver;stroke-width:1" />

<rect x="220.3846153846154" y="82.0" height="7.826086956521735" width="7.692307692307708" style="fill:red;stroke:red;stroke-width:1" />

<rect x="220.3846153846154" y="89.82608695652173" height="28.173913043478265" width="7.692307692307708" style="fill:dimgray;stroke:dimgray;stroke-width:1" />

<rect x="228.0769230769231" y="82" height="0.0" width="7.692307692307679" style="fill:silver;stroke:silver;stroke-width:1" />

<rect x="228.0769230769231" y="82.0" height="7.826086956521735" width="7.692307692307679" style="fill:red;stroke:red;stroke-width:1" />

<rect x="228.0769230769231" y="89.82608695652173" height="28.173913043478265" width="7.692307692307679" style="fill:dimgray;stroke:dimgray;stroke-width:1" />

<rect x="235.76923076923077" y="82" height="0.0" width="7.692307692307679" style="fill:silver;stroke:silver;stroke-width:1" />

<rect x="235.76923076923077" y="82.0" height="3.1304347826086882" width="7.692307692307679" style="fill:red;stroke:red;stroke-width:1" />

<rect x="235.76923076923077" y="85.13043478260869" height="32.86956521739131" width="7.692307692307679" style="fill:dimgray;stroke:dimgray;stroke-width:1" />

<rect x="243.46153846153845" y="82" height="0.0" width="7.692307692307708" style="fill:silver;stroke:silver;stroke-width:1" />

<rect x="243.46153846153845" y="82.0" height="0.0" width="7.692307692307708" style="fill:red;stroke:red;stroke-width:1" />

<rect x="243.46153846153845" y="82.0" height="36.0" width="7.692307692307708" style="fill:dimgray;stroke:dimgray;stroke-width:1" />

<rect x="251.15384615384616" y="82" height="0.0" width="7.692307692307651" style="fill:silver;stroke:silver;stroke-width:1" />

<rect x="251.15384615384616" y="82.0" height="0.0" width="7.692307692307651" style="fill:red;stroke:red;stroke-width:1" />

<rect x="251.15384615384616" y="82.0" height="36.0" width="7.692307692307651" style="fill:dimgray;stroke:dimgray;stroke-width:1" />

<rect x="258.8461538461538" y="82" height="0.0" width="7.692307692307736" style="fill:silver;stroke:silver;stroke-width:1" />

<rect x="258.8461538461538" y="82.0" height="0.0" width="7.692307692307736" style="fill:red;stroke:red;stroke-width:1" />

<rect x="258.8461538461538" y="82.0" height="36.0" width="7.692307692307736" style="fill:dimgray;stroke:dimgray;stroke-width:1" />

<rect x="266.53846153846155" y="82" height="0.0" width="7.692307692307679" style="fill:silver;stroke:silver;stroke-width:1" />

<rect x="266.53846153846155" y="82.0" height="0.0" width="7.692307692307679" style="fill:red;stroke:red;stroke-width:1" />

<rect x="266.53846153846155" y="82.0" height="36.0" width="7.692307692307679" style="fill:dimgray;stroke:dimgray;stroke-width:1" />

<rect x="274.2307692307692" y="82" height="0.0" width="7.692307692307679" style="fill:silver;stroke:silver;stroke-width:1" />

<rect x="274.2307692307692" y="82.0" height="0.0" width="7.692307692307679" style="fill:red;stroke:red;stroke-width:1" />

<rect x="274.2307692307692" y="82.0" height="36.0" width="7.692307692307679" style="fill:dimgray;stroke:dimgray;stroke-width:1" />

<rect x="281.9230769230769" y="82" height="0.0" width="7.692307692307736" style="fill:silver;stroke:silver;stroke-width:1" />

<rect x="281.9230769230769" y="82.0" height="0.0" width="7.692307692307736" style="fill:red;stroke:red;stroke-width:1" />

<rect x="281.9230769230769" y="82.0" height="36.0" width="7.692307692307736" style="fill:dimgray;stroke:dimgray;stroke-width:1" />

<rect x="289.61538461538464" y="82" height="0.0" width="7.692307692307679" style="fill:silver;stroke:silver;stroke-width:1" />

<rect x="289.61538461538464" y="82.0" height="0.0" width="7.692307692307679" style="fill:red;stroke:red;stroke-width:1" />

<rect x="289.61538461538464" y="82.0" height="36.0" width="7.692307692307679" style="fill:dimgray;stroke:dimgray;stroke-width:1" />

<rect x="297.3076923076923" y="82" height="0.0" width="7.692307692307679" style="fill:silver;stroke:silver;stroke-width:1" />

<rect x="297.3076923076923" y="82.0" height="0.0" width="7.692307692307679" style="fill:red;stroke:red;stroke-width:1" />

<rect x="297.3076923076923" y="82.0" height="36.0" width="7.692307692307679" style="fill:dimgray;stroke:dimgray;stroke-width:1" />

<rect x="305.0" y="82" height="0.0" width="7.692307692307736" style="fill:silver;stroke:silver;stroke-width:1" />

<rect x="305.0" y="82.0" height="0.0" width="7.692307692307736" style="fill:red;stroke:red;stroke-width:1" />

<rect x="305.0" y="82.0" height="36.0" width="7.692307692307736" style="fill:dimgray;stroke:dimgray;stroke-width:1" />

<rect x="312.69230769230774" y="82" height="0.0" width="7.692307692307622" style="fill:silver;stroke:silver;stroke-width:1" />

<rect x="312.69230769230774" y="82.0" height="0.0" width="7.692307692307622" style="fill:red;stroke:red;stroke-width:1" />

<rect x="312.69230769230774" y="82.0" height="36.0" width="7.692307692307622" style="fill:dimgray;stroke:dimgray;stroke-width:1" />

<rect x="320.38461538461536" y="82" height="0.0" width="7.692307692307736" style="fill:silver;stroke:silver;stroke-width:1" />

<rect x="320.38461538461536" y="82.0" height="0.0" width="7.692307692307736" style="fill:red;stroke:red;stroke-width:1" />

<rect x="320.38461538461536" y="82.0" height="36.0" width="7.692307692307736" style="fill:dimgray;stroke:dimgray;stroke-width:1" />

<rect x="328.0769230769231" y="82" height="0.0" width="7.692307692307679" style="fill:silver;stroke:silver;stroke-width:1" />

<rect x="328.0769230769231" y="82.0" height="0.0" width="7.692307692307679" style="fill:red;stroke:red;stroke-width:1" />

<rect x="328.0769230769231" y="82.0" height="36.0" width="7.692307692307679" style="fill:dimgray;stroke:dimgray;stroke-width:1" />

<rect x="335.7692307692308" y="82" height="0.0" width="7.692307692307679" style="fill:silver;stroke:silver;stroke-width:1" />

<rect x="335.7692307692308" y="82.0" height="0.0" width="7.692307692307679" style="fill:red;stroke:red;stroke-width:1" />

<rect x="335.7692307692308" y="82.0" height="36.0" width="7.692307692307679" style="fill:dimgray;stroke:dimgray;stroke-width:1" />

<rect x="343.46153846153845" y="82" height="0.0" width="7.692307692307736" style="fill:silver;stroke:silver;stroke-width:1" />

<rect x="343.46153846153845" y="82.0" height="0.0" width="7.692307692307736" style="fill:red;stroke:red;stroke-width:1" />

<rect x="343.46153846153845" y="82.0" height="36.0" width="7.692307692307736" style="fill:dimgray;stroke:dimgray;stroke-width:1" />

<rect x="351.1538461538462" y="82" height="0.0" width="7.692307692307622" style="fill:silver;stroke:silver;stroke-width:1" />

<rect x="351.1538461538462" y="82.0" height="0.0" width="7.692307692307622" style="fill:red;stroke:red;stroke-width:1" />

<rect x="351.1538461538462" y="82.0" height="36.0" width="7.692307692307622" style="fill:dimgray;stroke:dimgray;stroke-width:1" />

<rect x="358.8461538461538" y="82" height="0.0" width="7.692307692307736" style="fill:silver;stroke:silver;stroke-width:1" />

<rect x="358.8461538461538" y="82.0" height="0.0" width="7.692307692307736" style="fill:red;stroke:red;stroke-width:1" />

<rect x="358.8461538461538" y="82.0" height="36.0" width="7.692307692307736" style="fill:dimgray;stroke:dimgray;stroke-width:1" />

<rect x="366.53846153846155" y="82" height="0.0" width="7.692307692307679" style="fill:silver;stroke:silver;stroke-width:1" />

<rect x="366.53846153846155" y="82.0" height="0.0" width="7.692307692307679" style="fill:red;stroke:red;stroke-width:1" />

<rect x="366.53846153846155" y="82.0" height="36.0" width="7.692307692307679" style="fill:dimgray;stroke:dimgray;stroke-width:1" />

<rect x="374.2307692307692" y="82" height="0.0" width="7.692307692307679" style="fill:silver;stroke:silver;stroke-width:1" />

<rect x="374.2307692307692" y="82.0" height="0.0" width="7.692307692307679" style="fill:red;stroke:red;stroke-width:1" />

<rect x="374.2307692307692" y="82.0" height="36.0" width="7.692307692307679" style="fill:dimgray;stroke:dimgray;stroke-width:1" />

<rect x="381.9230769230769" y="82" height="0.0" width="7.692307692307736" style="fill:silver;stroke:silver;stroke-width:1" />

<rect x="381.9230769230769" y="82.0" height="0.0" width="7.692307692307736" style="fill:red;stroke:red;stroke-width:1" />

<rect x="381.9230769230769" y="82.0" height="36.0" width="7.692307692307736" style="fill:dimgray;stroke:dimgray;stroke-width:1" />

<rect x="389.61538461538464" y="82" height="0.0" width="7.692307692307679" style="fill:silver;stroke:silver;stroke-width:1" />

<rect x="389.61538461538464" y="82.0" height="0.0" width="7.692307692307679" style="fill:red;stroke:red;stroke-width:1" />

<rect x="389.61538461538464" y="82.0" height="36.0" width="7.692307692307679" style="fill:dimgray;stroke:dimgray;stroke-width:1" />

<rect x="397.3076923076923" y="82" height="0.0" width="7.692307692307679" style="fill:silver;stroke:silver;stroke-width:1" />

<rect x="397.3076923076923" y="82.0" height="0.0" width="7.692307692307679" style="fill:red;stroke:red;stroke-width:1" />

<rect x="397.3076923076923" y="82.0" height="36.0" width="7.692307692307679" style="fill:dimgray;stroke:dimgray;stroke-width:1" />

<text x="393.000000" y="5414.916703" font-size="100" font-family="monospace" fill="black" transform="scale(0.384615,0.036886)">L</text>

<text x="453.000000" y="1482.926286" font-size="100" font-family="monospace" fill="orange" transform="scale(0.384615,0.129818)">G</text>

<text x="453.000000" y="3288.006953" font-size="100" font-family="monospace" fill="green" transform="scale(0.384615,0.059916)">S</text>

<text x="513.000000" y="1316.411584" font-size="100" font-family="monospace" fill="orange" transform="scale(0.384615,0.143038)">G</text>

<text x="513.000000" y="3695.131856" font-size="100" font-family="monospace" fill="black" transform="scale(0.384615,0.052014)">A</text>

<text x="513.000000" y="5001.842474" font-size="100" font-family="monospace" fill="blue" transform="scale(0.384615,0.039010)">R</text>

<text x="513.000000" y="5076.842474" font-size="100" font-family="monospace" fill="red" transform="scale(0.384615,0.039010)">E</text>

<text x="573.000000" y="1496.608935" font-size="100" font-family="monospace" fill="orange" transform="scale(0.384615,0.132638)">G</text>

<text x="633.000000" y="10323.699072" font-size="100" font-family="monospace" fill="green" transform="scale(0.384615,0.019343)">S</text>

<text x="693.000000" y="11743.748448" font-size="100" font-family="monospace" fill="black" transform="scale(0.384615,0.017020)">N</text>

<text x="753.000000" y="9815.146692" font-size="100" font-family="monospace" fill="green" transform="scale(0.384615,0.020344)">Y</text>

<text x="873.000000" y="12137.591543" font-size="100" font-family="monospace" fill="black" transform="scale(0.384615,0.016468)">L</text>

<text x="993.000000" y="11170.059717" font-size="100" font-family="monospace" fill="black" transform="scale(0.384615,0.017880)">F</text>


<rect x="105" y="0" height="200.0" width="300" style="fill:none;stroke:black;stroke-width:1" />

<text x="1230.000000" y="75.000000" font-size="100" font-family="monospace" fill="red" transform="scale(0.333333,0.649275)">53*01</text>

<text x="1230.000000" y="337.500000" font-size="100" font-family="monospace" fill="blue" transform="scale(0.333333,0.185507)">33*01</text>

<text x="1230.000000" y="750.000000" font-size="100" font-family="monospace" fill="gold" transform="scale(0.333333,0.092754)">15*01</text>

<text x="1230.000000" y="1575.000000" font-size="100" font-family="monospace" fill="green" transform="scale(0.333333,0.046377)">56*01</text>

<text x="1230.000000" y="1650.000000" font-size="100" font-family="monospace" fill="magenta" transform="scale(0.333333,0.046377)">40*01</text>

<text x="1230.000000" y="1725.000000" font-size="100" font-family="monospace" fill="lime" transform="scale(0.333333,0.046377)">31*01</text>


<rect x="410" y="0" height="80" width="100" style="fill:none;stroke:black;stroke-width:1" />

<text x="410.000" y="128.000" font-size="8.0" font-weight="normal" font-family="Droid Sans Mono" fill="black" xml:space="preserve">PA A #clones=50</text>

<text x="410.000" y="136.000" font-size="8.0" font-weight="normal" font-family="Droid Sans Mono" fill="black" xml:space="preserve">chi-sq: 870.2</text>

<text x="410.000" y="144.000" font-size="8.0" font-weight="normal" font-family="Droid Sans Mono" fill="black" xml:space="preserve">motif: ^...a.GSnf.v.f</text>

<text x="410.000" y="152.000" font-size="8.0" font-weight="normal" font-family="Droid Sans Mono" fill="black" xml:space="preserve">match-: 15 30.0%</text>

<text x="410.000" y="160.000" font-size="8.0" font-weight="normal" font-family="Droid Sans Mono" fill="black" xml:space="preserve">match+: 23 46.0%</text>

<text x="410.000" y="168.000" font-size="8.0" font-weight="normal" font-family="Droid Sans Mono" fill="black" xml:space="preserve">expect: 0.240</text>

<text x="410.000" y="176.000" font-size="8.0" font-weight="normal" font-family="Droid Sans Mono" fill="black" xml:space="preserve">enrich: 62.5</text>

<text x="410.000" y="176.000" font-size="8.0" font-weight="normal" font-family="Droid Sans Mono" fill="black" xml:space="preserve">enrich: 62.5</text>

</svg>